<svg xmlns="http://www.w3.org/2000/svg" viewBox="0 0 64 64">
  <rect width="64" height="64" rx="15" fill="#07111f"/>
  <rect x="3" y="3" width="58" height="58" rx="13" fill="none" stroke="#53d4e9" stroke-opacity=".42" stroke-width="2"/>
  <g fill="none" stroke="#53d4e9" stroke-linecap="round" stroke-linejoin="round" stroke-width="4">
    <path d="M32 13v38M15.5 22.5l33 19M15.5 41.5l33-19"/>
    <path d="M32 13l-5 6m5-6 5 6M32 51l-5-6m5 6 5-6M15.5 22.5l8 .5m-8-.5 3.6 7M48.5 41.5l-8-.5m8 .5-3.6-7M15.5 41.5l3.6-7m-3.6 7 8-.5M48.5 22.5l-3.6 7m3.6-7-8 .5"/>
  </g>
  <circle cx="32" cy="32" r="4.2" fill="#ff754d"/>
</svg>
